<svg width="85" height="85" viewBox="0 0 85 85" fill="none" xmlns="http://www.w3.org/2000/svg">
<rect width="85" height="85" fill="black"/>
<path d="M52.7833 77.2617C52.7833 80.6263 48.3304 83.3539 42.8374 83.3539C37.3445 83.3539 32.8916 80.6263 32.8916 77.2617C32.8916 73.8971 37.3445 71.1696 42.8374 71.1696C48.3304 71.1696 52.7833 73.8971 52.7833 77.2617Z" fill="#C4C4C4"/>
<path d="M71.9788 25.3371C71.9788 38.2258 61.9847 64.5724 47.2517 75.6339C32.5188 86.6954 13 38.2258 13 25.3371C13 12.4484 28.8076 2 41.851 2C54.8943 2 71.9788 12.4484 71.9788 25.3371Z" fill="#FF5500"/>
<ellipse cx="42.539" cy="28.1495" rx="17.4052" ry="16.402" fill="white"/>
<g clip-path="url(#clip0)">
<path fill-rule="evenodd" clip-rule="evenodd" d="M38.9711 26.0957V33.5416L38.971 33.5416C38.9785 34.2225 38.4978 34.9903 37.5023 35.4728C36.1197 36.1429 34.6658 35.8158 34.1337 35.0421C33.6015 34.2684 33.9911 33.0479 35.3737 32.3779C36.3035 31.9272 37.2656 31.9276 37.9578 32.2115V26.2867V22.4674L48.0901 20.5577V21.5125V24.377V32.589L48.0901 32.589C48.0965 33.2694 47.6158 34.036 46.6214 34.518C45.2388 35.188 43.7849 34.861 43.2527 34.0873C42.7206 33.3136 43.1101 32.0931 44.4927 31.423C45.4226 30.9724 46.3846 30.9727 47.0769 31.2566V24.568L38.9711 26.0957Z" fill="black"/>
</g>
<defs>
<clipPath id="clip0">
<rect x="32.8916" y="20.5577" width="16.2117" height="15.2773" fill="white"/>
</clipPath>
</defs>
</svg>
