<svg width="183" height="82" viewBox="0 0 183 82" fill="none" xmlns="http://www.w3.org/2000/svg">
<path d="M39.7833 75.2617C39.7833 78.6263 35.3304 81.3539 29.8374 81.3539C24.3445 81.3539 19.8916 78.6263 19.8916 75.2617C19.8916 71.8971 24.3445 69.1696 29.8374 69.1696C35.3304 69.1696 39.7833 71.8971 39.7833 75.2617Z" fill="#C4C4C4"/>
<path d="M58.9788 23.3371C58.9788 36.2258 48.9847 62.5724 34.2517 73.6339C19.5188 84.6954 0 36.2258 0 23.3371C0 10.4484 15.8076 0 28.851 0C41.8943 0 58.9788 10.4484 58.9788 23.3371Z" fill="#FF5500"/>
<ellipse cx="29.539" cy="26.1495" rx="17.4052" ry="16.402" fill="white"/>
<g clip-path="url(#clip0)">
<path fill-rule="evenodd" clip-rule="evenodd" d="M25.9709 24.0957V31.5416L25.9708 31.5416C25.9784 32.2225 25.4977 32.9903 24.5022 33.4728C23.1196 34.1428 21.6657 33.8158 21.1335 33.0421C20.6014 32.2684 20.9909 31.0479 22.3735 30.3778C23.3034 29.9272 24.2654 29.9275 24.9577 30.2114V24.2867V20.4673L35.09 18.5577V19.5125V22.377V30.589L35.09 30.589C35.0964 31.2694 34.6157 32.036 33.6213 32.5179C32.2387 33.188 30.7848 32.861 30.2526 32.0873C29.7205 31.3135 30.11 30.0931 31.4926 29.423C32.4225 28.9724 33.3845 28.9727 34.0768 29.2566V22.568L25.9709 24.0957Z" fill="black"/>
</g>
<path d="M67.9726 51.7753V32.8802H70.6719V49.346H77.6631V51.7753H67.9726ZM92.0912 50.1018L88.9601 51.9103H83.7504L80.6192 50.1018V39.9524L83.7504 38.1439H88.9601L92.0912 39.9524V50.1018ZM83.2375 40.4923V49.5619H89.4729V40.4923H83.2375ZM99.0274 40.6272V49.4269H106.531V51.7753H99.5402L96.4091 49.9668V40.0874L99.5402 38.2788H106.531V40.6272H99.0274ZM112.379 46.2418V49.5619H117.805V46.2418H112.379ZM112.892 51.9103L109.761 50.1018V45.7019L112.892 43.8934H117.805V40.6272H111.111V38.2788H117.292L120.423 40.0874V51.9103H119.722L117.805 50.8036L115.889 51.9103H112.892ZM127.878 51.7753L124.746 49.9668V32.0704H127.365V49.4269H130.604V51.7753H127.878ZM133.853 51.7753V47.7264H137.902V51.7753H133.853ZM143.02 51.7753V32.8802H145.72V49.346H152.711V51.7753H143.02ZM159.31 51.7753V43.4345L152.967 32.8802H155.99L160.633 40.9241H160.687L165.357 32.8802H168.38L162.009 43.4615V51.7753H159.31Z" fill="#FDFDFD"/>
<defs>
<clipPath id="clip0">
<rect x="19.8916" y="18.5577" width="16.2117" height="15.2773" fill="white"/>
</clipPath>
</defs>
</svg>
